<?xml version="1.0"?>

<svg width="100%" height="100%" viewBox="0 0 1331 410" version="1.1" xmlns="http://www.w3.org/2000/svg" xmlns:xlink="http://www.w3.org/1999/xlink" xml:space="preserve" xmlns:serif="http://www.serif.com/" style="fill-rule:evenodd;clip-rule:evenodd;stroke-linejoin:round;stroke-miterlimit:2;">
    <g transform="matrix(1,0,0,1,-5253,-500)">
        <g transform="matrix(4.166667,0,0,4.166667,4853,0)">
            <g transform="matrix(1,0,0,1,114.526,195.970915)">
                <path d="M0,-7.986L-6.491,-7.986L-6.491,-18.293L0,-18.293C2.991,-18.293 5.334,-16.109 5.334,-13.32C5.334,-10.33 2.991,-7.986 0,-7.986M0.651,-29.678L-16.774,-29.678C-17.741,-29.678 -18.526,-28.892 -18.526,-27.926L-18.526,19.94C-18.526,20.906 -17.741,21.692 -16.774,21.692L-8.242,21.692C-7.309,21.692 -6.491,20.874 -6.491,19.94L-6.491,3.327L0.723,3.327C9.823,3.327 17.226,-4.142 17.226,-13.32C17.226,-22.34 9.791,-29.678 0.651,-29.678" style="fill:white;fill-rule:nonzero;"></path>
            </g>
        </g>
        <g transform="matrix(4.166667,0,0,4.166667,4853,0)">
            <g transform="matrix(1,0,0,1,177.0612,191.905415)">
                <path d="M0,0.145C0,7.871 -6.317,14.155 -14.083,14.155C-21.809,14.155 -28.093,7.871 -28.093,0.145C-28.093,-7.661 -21.809,-14.01 -14.083,-14.01C-6.317,-14.01 0,-7.661 0,0.145M-14.083,-26.335C-28.604,-26.335 -40.418,-14.457 -40.418,0.145C-40.418,14.913 -28.851,26.48 -14.083,26.48C0.725,26.48 12.325,14.913 12.325,0.145C12.325,-14.457 0.479,-26.335 -14.083,-26.335" style="fill:white;fill-rule:nonzero;"></path>
            </g>
        </g>
        <g transform="matrix(4.166667,0,0,4.166667,4853,0)">
            <g transform="matrix(1,0,0,1,214.6256,197.752215)">
                <path d="M0,-11.548C-5.43,-13.748 -7.645,-15.678 -7.645,-18.211C-7.645,-20.036 -5.771,-21.52 -3.468,-21.52C0.23,-21.52 4.69,-18.549 6.156,-17.573C6.414,-17.402 6.596,-17.281 6.64,-17.262C6.933,-17.034 7.32,-16.955 7.764,-17.032C8.479,-17.155 9.254,-17.676 9.646,-18.292L13.347,-23.88C13.719,-24.533 13.851,-26.081 12.808,-26.686C10.009,-28.738 4.248,-32.182 -2.889,-32.182C-14.625,-32.182 -19.97,-24.527 -19.97,-17.416C-19.97,-8.58 -12.212,-3.658 -5.704,-1.085C-0.787,0.868 1.504,3.077 1.504,5.867C1.504,8.161 -0.435,9.827 -3.106,9.827C-4.995,9.827 -8.228,9.177 -12.903,6.081C-13.082,5.964 -13.158,5.917 -13.154,5.92C-13.572,5.621 -14.289,5.5 -14.901,5.621C-15.45,5.732 -15.882,6.023 -16.162,6.476L-19.558,12.476C-20.272,13.724 -19.884,14.208 -19.137,14.955C-18.188,15.904 -12.935,20.634 -2.6,20.634C8.318,20.634 14.842,12.831 14.842,5.288C14.842,-4.516 6.371,-9.016 0,-11.548" style="fill:white;fill-rule:nonzero;"></path>
            </g>
        </g>
        <g transform="matrix(4.166667,0,0,4.166667,4853,0)">
            <g transform="matrix(1,0,0,1,249.402,217.663015)">
                <path d="M0,-51.37L-8.677,-51.37C-9.61,-51.37 -10.429,-50.552 -10.429,-49.619L-10.429,-1.752C-10.429,-0.818 -9.61,0 -8.677,0L0,0C0.934,0 1.752,-0.818 1.752,-1.752L1.752,-49.619C1.752,-50.552 0.934,-51.37 0,-51.37" style="fill:white;fill-rule:nonzero;"></path>
            </g>
        </g>
        <g transform="matrix(4.166667,0,0,4.166667,4853,0)">
            <g transform="matrix(1,0,0,1,292.3199,217.663015)">
                <path d="M0,-51.37L-32.104,-51.37C-33.069,-51.37 -33.855,-50.584 -33.855,-49.619L-33.855,-41.737C-33.855,-40.771 -33.069,-39.985 -32.104,-39.985L-22.143,-39.985L-22.143,-1.752C-22.143,-0.818 -21.323,0 -20.39,0L-11.714,0C-10.78,0 -9.961,-0.818 -9.961,-1.752L-9.961,-39.985L0,-39.985C0.966,-39.985 1.752,-40.771 1.752,-41.737L1.752,-49.619C1.752,-50.584 0.966,-51.37 0,-51.37" style="fill:white;fill-rule:nonzero;"></path>
            </g>
        </g>
        <g transform="matrix(4.166667,0,0,4.166667,4853,0)">
            <g transform="matrix(1,0,0,1,311.962,217.663015)">
                <path d="M0,-51.37L-8.677,-51.37C-9.611,-51.37 -10.429,-50.552 -10.429,-49.619L-10.429,-1.752C-10.429,-0.818 -9.611,0 -8.677,0L0,0C0.934,0 1.751,-0.818 1.751,-1.752L1.751,-49.619C1.751,-50.552 0.934,-51.37 0,-51.37" style="fill:white;fill-rule:nonzero;"></path>
            </g>
        </g>
        <g transform="matrix(4.166667,0,0,4.166667,4853,0)">
            <g transform="matrix(1,0,0,1,412.4547,206.277815)">
                <path d="M0,-28.6C0.966,-28.6 1.752,-29.386 1.752,-30.351L1.752,-38.233C1.752,-39.199 0.966,-39.985 0,-39.985L-29.935,-39.985C-30.901,-39.985 -31.687,-39.199 -31.687,-38.233L-31.687,9.633C-31.687,10.599 -30.901,11.385 -29.935,11.385L0,11.385C0.966,11.385 1.752,10.599 1.752,9.633L1.752,1.752C1.752,0.786 0.966,0 0,0L-19.651,0L-19.651,-9.005L-3.543,-9.005C-2.577,-9.005 -1.791,-9.791 -1.791,-10.757L-1.791,-18.639C-1.791,-19.572 -2.609,-20.391 -3.543,-20.391L-19.651,-20.391L-19.651,-28.6L0,-28.6Z" style="fill:white;fill-rule:nonzero;"></path>
            </g>
        </g>
        <g transform="matrix(4.166667,0,0,4.166667,4853,0)">
            <g transform="matrix(1,0,0,1,414.6324,218.439415)">
                <path d="M0,-98.433C-31.17,-89.833 -67.267,-31.131 -67.267,-31.131L-79.342,-50.441C-79.791,-51.157 -80.849,-51.744 -81.694,-51.744L-95.641,-51.744C-96.486,-51.744 -96.823,-51.15 -96.389,-50.424L-67.161,-1.492C-67.042,-1.294 -65.956,0.084 -64.705,-1.492L-64.705,-1.481C-32.709,-66.117 -5.198,-92.758 0.518,-97.877L0.517,-97.878C1.049,-98.517 0.082,-98.44 0,-98.433" style="fill:rgb(161,226,32);fill-rule:nonzero;"></path>
            </g>
        </g>
        <g transform="matrix(4.166667,0,0,4.166667,4853,0)">
            <g transform="matrix(1.125564,0,0,1.125564,-1198.313961,-929.959674)">
                <path d="M1149.924,967.76C1149.924,968.87 1150.51,969.456 1151.62,969.456L1153.624,969.456C1154.733,969.456 1155.319,968.87 1155.319,967.76L1155.319,962.643L1159.08,962.643C1163.365,962.643 1166.262,959.437 1166.262,954.998C1166.262,950.559 1163.365,947.414 1159.08,947.414L1151.62,947.414C1150.51,947.414 1149.924,948 1149.924,949.11L1149.924,967.76ZM1155.319,958.019L1155.319,952.038L1158.063,952.038C1159.851,952.038 1160.775,953.241 1160.775,954.998C1160.775,956.755 1159.851,958.019 1157.97,958.019L1155.319,958.019Z" style="fill:white;fill-rule:nonzero;"></path>
                <path d="M1167.773,958.296C1167.773,964.77 1172.459,969.825 1179.302,969.825C1186.146,969.825 1190.831,964.77 1190.831,958.296C1190.831,951.977 1186.146,947.045 1179.302,947.045C1172.459,947.045 1167.773,951.977 1167.773,958.296ZM1173.353,958.296C1173.353,954.69 1175.819,951.977 1179.302,951.977C1182.786,951.977 1185.252,954.69 1185.252,958.296C1185.252,962.057 1182.786,964.893 1179.302,964.893C1175.819,964.893 1173.353,962.057 1173.353,958.296Z" style="fill:white;fill-rule:nonzero;"></path>
                <path d="M1196.812,967.976C1197.058,968.962 1197.675,969.456 1198.692,969.456L1201.744,969.456C1202.761,969.456 1203.378,968.962 1203.624,967.976L1206.029,958.327C1206.368,956.909 1206.46,955.738 1206.46,955.738L1206.522,955.738C1206.522,955.738 1206.615,956.909 1206.954,958.327L1209.358,967.976C1209.605,968.962 1210.221,969.456 1211.239,969.456L1214.229,969.456C1215.246,969.456 1215.863,968.993 1216.109,968.007L1220.856,949.295C1221.134,948.123 1220.579,947.414 1219.377,947.414L1217.281,947.414C1216.232,947.414 1215.616,947.908 1215.4,948.894L1212.718,961.194C1212.441,962.55 1212.441,963.506 1212.441,963.506L1212.379,963.506C1212.379,963.506 1212.348,962.55 1212.009,961.194L1209.05,948.894C1208.834,947.908 1208.218,947.414 1207.2,947.414L1205.875,947.414C1204.857,947.414 1204.241,947.908 1203.994,948.894L1200.973,961.194C1200.634,962.55 1200.603,963.506 1200.603,963.506L1200.542,963.506C1200.542,963.506 1200.542,962.55 1200.264,961.194L1197.798,948.925C1197.582,947.908 1196.966,947.414 1195.949,947.414L1193.76,947.414C1192.558,947.414 1192.003,948.123 1192.28,949.295L1196.812,967.976Z" style="fill:white;fill-rule:nonzero;"></path>
                <path d="M1223.631,967.76C1223.631,968.87 1224.217,969.456 1225.326,969.456L1236.177,969.456C1237.287,969.456 1237.873,968.87 1237.873,967.76L1237.873,966.527C1237.873,965.417 1237.287,964.832 1236.177,964.832L1229.026,964.832L1229.026,960.67L1234.05,960.67C1235.16,960.67 1235.746,960.084 1235.746,958.974L1235.746,957.741C1235.746,956.632 1235.16,956.046 1234.05,956.046L1229.026,956.046L1229.026,952.038L1235.746,952.038C1236.855,952.038 1237.441,951.453 1237.441,950.343L1237.441,949.11C1237.441,948 1236.855,947.414 1235.746,947.414L1225.326,947.414C1224.217,947.414 1223.631,948 1223.631,949.11L1223.631,967.76Z" style="fill:white;fill-rule:nonzero;"></path>
                <path d="M1240.894,967.76C1240.894,968.87 1241.479,969.456 1242.589,969.456L1244.593,969.456C1245.703,969.456 1246.288,968.87 1246.288,967.76L1246.288,962.026L1248.816,962.026L1252.084,968.253C1252.546,969.086 1253.163,969.456 1254.088,969.456L1256.43,969.456C1257.756,969.456 1258.28,968.592 1257.602,967.421L1254.458,961.749C1253.933,960.824 1253.625,960.423 1253.625,960.423L1253.625,960.362C1255.814,959.252 1256.924,956.693 1256.924,954.35C1256.924,951.144 1255.351,948.894 1252.855,947.938C1251.899,947.569 1250.82,947.414 1248.57,947.414L1242.589,947.414C1241.479,947.414 1240.894,948 1240.894,949.11L1240.894,967.76ZM1246.288,957.402L1246.288,952.038L1248.107,952.038C1249.001,952.038 1249.649,952.131 1250.142,952.347C1251.159,952.747 1251.436,953.58 1251.436,954.69C1251.436,956.447 1250.358,957.402 1248.631,957.402L1246.288,957.402Z" style="fill:white;fill-rule:nonzero;"></path>
                <path d="M1260.623,967.76C1260.623,968.87 1261.209,969.456 1262.318,969.456L1273.169,969.456C1274.279,969.456 1274.865,968.87 1274.865,967.76L1274.865,966.527C1274.865,965.417 1274.279,964.832 1273.169,964.832L1266.018,964.832L1266.018,960.67L1271.042,960.67C1272.152,960.67 1272.738,960.084 1272.738,958.974L1272.738,957.741C1272.738,956.632 1272.152,956.046 1271.042,956.046L1266.018,956.046L1266.018,952.038L1272.738,952.038C1273.847,952.038 1274.433,951.453 1274.433,950.343L1274.433,949.11C1274.433,948 1273.847,947.414 1272.738,947.414L1262.318,947.414C1261.209,947.414 1260.623,948 1260.623,949.11L1260.623,967.76Z" style="fill:white;fill-rule:nonzero;"></path>
                <path d="M1277.886,967.76C1277.886,968.87 1278.471,969.456 1279.581,969.456L1285.716,969.456C1292.652,969.456 1297.091,965.325 1297.091,958.389C1297.091,951.453 1292.652,947.414 1285.716,947.414L1279.581,947.414C1278.471,947.414 1277.886,948 1277.886,949.11L1277.886,967.76ZM1283.28,964.832L1283.28,952.038L1285.5,952.038C1289.137,952.038 1291.511,954.196 1291.511,958.389C1291.511,962.612 1289.23,964.832 1285.5,964.832L1283.28,964.832Z" style="fill:white;fill-rule:nonzero;"></path>
                <path d="M1307.973,967.76C1307.973,968.87 1308.558,969.456 1309.668,969.456L1316.08,969.456C1320.457,969.456 1324.465,967.698 1324.465,962.889C1324.465,960.947 1323.54,958.697 1321.012,957.926L1321.012,957.865C1322.677,956.909 1323.571,955.029 1323.571,953.179C1323.571,949.387 1320.488,947.414 1316.08,947.414L1309.668,947.414C1308.558,947.414 1307.973,948 1307.973,949.11L1307.973,967.76ZM1313.367,955.953L1313.367,952.038L1316.049,952.038C1317.498,952.038 1318.084,952.902 1318.084,953.919C1318.084,954.967 1317.498,955.953 1316.142,955.953L1313.367,955.953ZM1313.367,964.832L1313.367,960.269L1316.635,960.269C1318.207,960.269 1318.947,961.286 1318.947,962.52C1318.947,963.753 1318.176,964.832 1316.604,964.832L1313.367,964.832Z" style="fill:white;fill-rule:nonzero;"></path>
                <path d="M1331.524,967.76C1331.524,968.87 1332.11,969.456 1333.22,969.456L1335.223,969.456C1336.333,969.456 1336.919,968.87 1336.919,967.76L1336.919,960.423L1343.053,949.449C1343.732,948.278 1343.207,947.414 1341.882,947.414L1339.447,947.414C1338.491,947.414 1337.874,947.815 1337.474,948.678L1335.593,952.717C1334.884,954.227 1334.268,955.892 1334.268,955.892L1334.206,955.892C1334.206,955.892 1333.59,954.227 1332.881,952.717L1330.969,948.678C1330.569,947.815 1329.952,947.414 1328.996,947.414L1326.561,947.414C1325.236,947.414 1324.711,948.278 1325.39,949.449L1331.524,960.423L1331.524,967.76Z" style="fill:white;fill-rule:nonzero;"></path>
            </g>
        </g>
    </g>
</svg>